# This file uses centimeters as units for non-parametric coordinates.

mtllib Sorting_grp_SM_HOTEL_sol.mtl
g default
v -748.614685 -28.838979 801.190460
v 748.614685 -28.838979 801.190460
v -748.614685 28.838979 801.190460
v 748.614685 28.838979 801.190460
v -748.614685 28.838979 -801.190460
v 748.614685 28.838979 -801.190460
v -748.614685 -28.838979 -801.190460
v 748.614685 -28.838979 -801.190460
vt 0.427841 0.998008
vt 0.427841 0.501830
vt 0.445700 0.501830
vt 0.445700 0.998008
vt 0.404356 0.998008
vt 0.404356 0.501830
vt 0.422216 0.501830
vt 0.422216 0.998008
vt 0.001826 0.001992
vt 0.465444 0.001992
vt 0.465444 0.498170
vt 0.001826 0.498170
vt 0.451325 0.501830
vt 0.914943 0.501830
vt 0.914943 0.998008
vt 0.451325 0.998008
vt 0.380871 0.965448
vt 0.380871 0.501830
vt 0.398731 0.501830
vt 0.398731 0.965448
vt 0.357386 0.965448
vt 0.357386 0.501830
vt 0.375247 0.501830
vt 0.375247 0.965448
vn 0.000000 0.000000 1.000000
vn 0.000000 0.000000 1.000000
vn 0.000000 0.000000 1.000000
vn 0.000000 0.000000 1.000000
vn 0.000000 1.000000 0.000000
vn 0.000000 1.000000 0.000000
vn 0.000000 1.000000 0.000000
vn 0.000000 1.000000 0.000000
vn 0.000000 0.000000 -1.000000
vn 0.000000 0.000000 -1.000000
vn 0.000000 0.000000 -1.000000
vn 0.000000 0.000000 -1.000000
vn 0.000000 -1.000000 0.000000
vn 0.000000 -1.000000 0.000000
vn 0.000000 -1.000000 0.000000
vn 0.000000 -1.000000 0.000000
vn 1.000000 0.000000 0.000000
vn 1.000000 0.000000 0.000000
vn 1.000000 0.000000 0.000000
vn 1.000000 0.000000 0.000000
vn -1.000000 0.000000 0.000000
vn -1.000000 0.000000 0.000000
vn -1.000000 0.000000 0.000000
vn -1.000000 0.000000 0.000000
s 1
g Sorting_grp_SM_HOTEL_sol
usemtl initialShadingGroup
f 1/17/1 2/18/2 3/20/3
f 3/20/3 2/18/2 4/19/4
s 2
f 3/9/5 4/10/6 5/12/7
f 5/12/7 4/10/6 6/11/8
s 3
f 5/21/9 6/22/10 7/24/11
f 7/24/11 6/22/10 8/23/12
s 4
f 7/13/13 8/14/14 1/16/15
f 1/16/15 8/14/14 2/15/16
s 5
f 2/1/17 8/2/18 4/4/19
f 4/4/19 8/2/18 6/3/20
s 6
f 7/5/21 1/6/22 5/8/23
f 5/8/23 1/6/22 3/7/24
