# This file uses centimeters as units for non-parametric coordinates.

mtllib SM_HOTEL_cabine_2em_etage_PORTE_COTE_GEO.mtl
g default
v 131.633545 -187.721558 66.142273
v 131.633545 -187.721558 73.659912
v 26.395020 -187.721558 73.659912
v 26.395020 -187.721558 66.142273
v 26.395020 96.245972 66.142273
v 26.395020 96.245972 73.659912
v 126.898285 94.977173 66.142273
v 130.364746 91.510620 66.142273
v 131.633545 86.775391 66.142273
v 122.163025 96.245972 66.142273
v 131.633545 86.775391 73.659912
v 130.364746 91.510620 73.659912
v 126.898285 94.977173 73.659912
v 122.163025 96.245972 73.659912
vt 0.384508 0.385556
vt 0.374565 0.385556
vt 0.384508 0.022501
vt 0.384508 0.391818
vt 0.374565 0.022501
vt 0.374565 0.391818
vt 0.384508 0.396403
vt 0.374565 0.396403
vt 0.384761 0.022501
vt 0.394676 0.022501
vt 0.384761 0.397021
vt 0.394676 0.397021
vt 0.664879 0.518205
vt 0.664879 0.657002
vt 0.654964 0.518205
vt 0.654964 0.657002
vt 0.665160 0.524455
vt 0.675083 0.524455
vt 0.665160 0.650867
vt 0.665160 0.518205
vt 0.675083 0.650867
vt 0.675083 0.518205
vt 0.528657 0.892724
vt 0.389859 0.892724
vt 0.528657 0.530695
vt 0.526983 0.524450
vt 0.522411 0.519878
vt 0.516166 0.518205
vt 0.389859 0.518205
vt 0.247111 0.892724
vt 0.247111 0.518205
vt 0.373418 0.892724
vt 0.379663 0.891051
vt 0.384235 0.886479
vt 0.385908 0.880234
vt 0.385908 0.518205
vn 0.999990 0.004544 0.000000
vn 0.999990 0.004544 0.000000
vn 1.000000 0.000000 0.000000
vn 1.000000 0.000000 0.000000
vn 0.000000 -1.000000 0.000000
vn 0.000000 -1.000000 0.000000
vn 0.000000 -1.000000 0.000000
vn 0.000000 -1.000000 0.000000
vn 0.012623 0.999920 0.000000
vn 0.012623 0.999920 0.000000
vn 0.000000 1.000000 0.000000
vn 0.000000 1.000000 0.000000
vn -1.000000 0.000000 0.000000
vn -1.000000 0.000000 0.000000
vn -1.000000 0.000000 0.000000
vn -1.000000 0.000000 0.000000
vn 0.866027 0.499996 0.000000
vn 0.866027 0.499997 0.000000
vn 0.707117 0.707097 0.000000
vn 0.707116 0.707097 0.000000
vn 0.258817 0.965927 0.000000
vn 0.258817 0.965926 0.000000
vn 0.000000 0.000000 -1.000000
vn 0.000000 0.000000 -1.000000
vn 0.000000 0.000000 -1.000000
vn 0.000000 0.000000 -1.000000
vn 0.000000 0.000000 -1.000000
vn 0.000000 0.000000 -1.000000
vn 0.000000 0.000000 -1.000000
vn 0.000000 0.000000 1.000000
vn -0.000000 0.000000 1.000000
vn -0.000000 0.000000 1.000000
vn 0.000000 0.000000 1.000000
vn -0.000001 0.000000 1.000000
vn 0.000001 0.000000 1.000000
vn 0.000001 0.000000 1.000000
s 1
g SM_HOTEL_cabine_2em_etage_PORTE_COTE_GEO CABINE_GRP HOTEL_cabine_2eme_etage_GRP
usemtl initialShadingGroup
f 9/1/1 11/2/2 1/3/3
f 1/3/3 11/2/2 2/5/4
s 2
f 2/13/5 3/14/6 1/15/7
f 1/15/7 3/14/6 4/16/8
s 3
f 14/17/9 10/18/10 6/19/11
f 6/19/11 10/18/10 5/21/12
s 4
f 4/9/13 3/10/14 5/11/15
f 5/11/15 3/10/14 6/12/16
s 1
f 9/1/1 8/4/17 11/2/2
f 11/2/2 8/4/17 12/6/18
f 8/4/17 7/7/19 12/6/18
f 12/6/18 7/7/19 13/8/20
s 3
f 7/22/21 10/18/10 13/20/22
f 13/20/22 10/18/10 14/17/9
s 5
f 1/23/23 4/24/24 9/25/25
f 5/29/26 10/28/27 4/24/24
f 10/28/27 7/27/28 4/24/24
f 7/27/28 8/26/29 4/24/24
f 8/26/29 9/25/25 4/24/24
s 7
f 6/30/30 3/31/31 14/32/32
f 2/36/33 11/35/34 3/31/31
f 14/32/32 3/31/31 13/33/35
f 13/33/35 3/31/31 12/34/36
f 3/31/31 11/35/34 12/34/36
