# This file uses centimeters as units for non-parametric coordinates.

mtllib SM_HOTEL_toitVerriere.mtl
g default
v -457.460815 -72.986824 -446.646790
v -454.566620 -71.820839 443.151886
v -8.531932 175.939453 7.495455
v -458.960388 -70.434792 -446.648102
v -456.066254 -69.268814 443.150574
v -10.031526 178.491455 7.494147
v -452.045715 -72.145096 446.325043
v 450.470612 -72.196556 452.750214
v -2.562495 176.687805 13.471144
v -452.047028 -69.593071 447.824646
v 450.469269 -69.644531 454.249847
v -2.563802 179.239807 14.970741
v 454.851807 -72.145096 450.686951
v 455.721069 -72.196556 -446.148651
v 5.532668 175.528915 8.972879
v 456.351379 -69.593071 450.688293
v 457.220734 -69.644531 -446.147339
v 7.032261 178.080917 8.974187
v 449.348114 -72.085274 -453.317841
v -455.910889 -72.248055 -451.010193
v -1.162429 176.541000 2.517798
v 449.349457 -69.533249 -454.817413
v -455.909576 -69.696037 -452.509827
v -1.161122 179.093002 1.018199
vt 0.186053 0.769402
vt 0.187283 0.390944
vt 0.376995 0.576242
vt 0.496865 0.389778
vt 0.687808 0.582938
vt 0.498096 0.768236
vt 0.496227 0.389777
vt 0.497458 0.768235
vt 0.383627 0.769402
vt 0.489007 0.584104
vt 0.384712 0.769401
vt 0.490092 0.584104
vt 0.383131 0.390944
vt 0.384216 0.390943
vt 0.601299 0.385785
vt 0.598566 0.001918
vt 0.785405 0.194606
vt 0.587777 0.385785
vt 0.403671 0.194607
vt 0.590510 0.001918
vt 0.588415 0.385786
vt 0.591148 0.001918
vt 0.115226 0.960232
vt 0.221084 0.773394
vt 0.116312 0.960870
vt 0.222170 0.774031
vt 0.336050 0.958137
vt 0.230214 0.774031
vt 0.337136 0.957499
vt 0.231300 0.773394
vt 0.885052 0.389777
vt 0.885422 0.771228
vt 0.693943 0.577651
vt 0.984571 0.383369
vt 0.793462 0.195495
vt 0.984940 0.001918
vt 0.985208 0.383370
vt 0.985578 0.001918
vt 0.891557 0.768813
vt 0.996923 0.575236
vt 0.892643 0.768812
vt 0.998008 0.575235
vt 0.891579 0.387362
vt 0.892665 0.387361
vt 0.396810 0.001918
vt 0.395828 0.386952
vt 0.202929 0.193534
vt 0.002630 0.001918
vt 0.196510 0.193534
vt 0.003611 0.386952
vt 0.001992 0.001918
vt 0.002974 0.386952
vt 0.001992 0.782353
vt 0.107810 0.589454
vt 0.003077 0.782991
vt 0.108895 0.590092
vt 0.178832 0.585462
vt 0.073083 0.391582
vt 0.179917 0.584825
vt 0.074169 0.390944
vn -0.485265 0.874367 0.000433
vn -0.485265 0.874367 0.000433
vn -0.485265 0.874367 0.000433
vn 0.485265 -0.874367 -0.000433
vn 0.485265 -0.874367 -0.000433
vn 0.485265 -0.874367 -0.000433
vn -0.862182 -0.506586 0.003468
vn -0.862182 -0.506586 0.003468
vn -0.862182 -0.506586 0.003468
vn -0.862159 -0.506627 0.003468
vn -0.862159 -0.506627 0.003468
vn -0.862159 -0.506627 0.003468
vn 0.559771 0.329328 0.760394
vn 0.559771 0.329328 0.760394
vn 0.559771 0.329328 0.760394
vn 0.559775 0.329320 0.760394
vn 0.559775 0.329320 0.760394
vn 0.559775 0.329320 0.760394
vn 0.571548 0.335468 -0.748862
vn 0.571548 0.335468 -0.748862
vn 0.571548 0.335468 -0.748862
vn 0.571553 0.335455 -0.748864
vn 0.571553 0.335455 -0.748864
vn 0.571553 0.335455 -0.748864
vn -0.003479 0.868508 0.495663
vn -0.003479 0.868508 0.495663
vn -0.003479 0.868508 0.495663
vn 0.003479 -0.868508 -0.495663
vn 0.003479 -0.868508 -0.495663
vn 0.003479 -0.868508 -0.495663
vn -0.006167 -0.506615 0.862151
vn -0.006167 -0.506615 0.862150
vn -0.006167 -0.506615 0.862150
vn -0.006167 -0.506622 0.862146
vn -0.006167 -0.506622 0.862146
vn -0.006167 -0.506622 0.862146
vn 0.744248 0.338675 -0.575669
vn 0.744248 0.338675 -0.575669
vn 0.744248 0.338675 -0.575668
vn 0.744249 0.338657 -0.575678
vn 0.744249 0.338657 -0.575678
vn 0.744249 0.338657 -0.575678
vn -0.743186 0.338688 -0.577031
vn -0.743186 0.338688 -0.577031
vn -0.743186 0.338688 -0.577031
vn -0.743182 0.338693 -0.577034
vn -0.743182 0.338693 -0.577034
vn -0.743182 0.338693 -0.577034
vn 0.482425 0.875937 0.000417
vn 0.482425 0.875938 0.000417
vn 0.482424 0.875937 0.000417
vn -0.482425 -0.875937 -0.000417
vn -0.482425 -0.875937 -0.000417
vn -0.482425 -0.875937 -0.000417
vn 0.862168 -0.506622 0.000865
vn 0.862168 -0.506623 0.000865
vn 0.862168 -0.506622 0.000865
vn 0.862151 -0.506650 0.000865
vn 0.862151 -0.506650 0.000865
vn 0.862151 -0.506650 0.000865
vn -0.571609 0.336281 -0.748451
vn -0.571609 0.336281 -0.748451
vn -0.571609 0.336281 -0.748451
vn -0.571613 0.336275 -0.748450
vn -0.571613 0.336275 -0.748450
vn -0.571613 0.336275 -0.748450
vn -0.562808 0.330330 0.757713
vn -0.562808 0.330330 0.757713
vn -0.562808 0.330330 0.757713
vn -0.562814 0.330314 0.757716
vn -0.562814 0.330314 0.757716
vn -0.562814 0.330314 0.757716
vn -0.001381 0.877330 -0.479886
vn -0.001381 0.877330 -0.479887
vn -0.001381 0.877330 -0.479886
vn 0.001381 -0.877330 0.479886
vn 0.001381 -0.877330 0.479886
vn 0.001381 -0.877330 0.479887
vn -0.002107 -0.506613 -0.862171
vn -0.002107 -0.506613 -0.862171
vn -0.002107 -0.506613 -0.862171
vn -0.002107 -0.506626 -0.862163
vn -0.002107 -0.506626 -0.862163
vn -0.002107 -0.506626 -0.862163
vn -0.750896 0.334876 0.569221
vn -0.750896 0.334876 0.569221
vn -0.750896 0.334876 0.569221
vn -0.750901 0.334862 0.569223
vn -0.750901 0.334863 0.569223
vn -0.750901 0.334863 0.569223
vn 0.755160 0.331828 0.565353
vn 0.755160 0.331828 0.565353
vn 0.755160 0.331828 0.565353
vn 0.755160 0.331813 0.565361
vn 0.755160 0.331813 0.565361
vn 0.755160 0.331813 0.565361
s off
g SM_HOTEL_toitVerriere1
usemtl initialShadingGroup
f 4/1/1 5/2/2 6/3/3
f 1/4/4 3/5/5 2/6/6
f 1/4/7 2/6/8 4/7/9
f 4/7/10 2/6/11 5/8/12
f 2/9/13 3/10/14 5/11/15
f 5/11/16 3/10/17 6/12/18
f 3/10/19 1/13/20 6/12/21
f 6/12/22 1/13/23 4/14/24
f 10/15/25 11/16/26 12/17/27
f 7/18/28 9/19/29 8/20/30
f 7/18/31 8/20/32 10/21/33
f 10/21/34 8/20/35 11/22/36
f 8/23/37 9/24/38 11/25/39
f 11/25/40 9/24/41 12/26/42
f 9/27/43 7/28/44 12/29/45
f 12/29/46 7/28/47 10/30/48
f 16/31/49 17/32/50 18/33/51
f 13/34/52 15/35/53 14/36/54
f 13/34/55 14/36/56 16/37/57
f 16/37/58 14/36/59 17/38/60
f 14/39/61 15/40/62 17/41/63
f 17/41/64 15/40/65 18/42/66
f 15/40/67 13/43/68 18/42/69
f 18/42/70 13/43/71 16/44/72
f 22/45/73 23/46/74 24/47/75
f 19/48/76 21/49/77 20/50/78
f 19/48/79 20/50/80 22/51/81
f 22/51/82 20/50/83 23/52/84
f 20/53/85 21/54/86 23/55/87
f 23/55/88 21/54/89 24/56/90
f 21/57/91 19/58/92 24/59/93
f 24/59/94 19/58/95 22/60/96
