# This file uses centimeters as units for non-parametric coordinates.

mtllib SM_HOTEL_tuyau_2eme_etage.mtl
g default
v -65.214905 41.947144 30.884583
v -66.024780 39.067261 36.085571
v -67.705505 33.307373 36.095459
v -68.576416 30.427490 30.904358
v -67.766602 33.307373 25.703369
v -66.085815 39.067261 25.693481
v -41.119141 34.299316 30.240723
v -41.887634 31.406250 35.440735
v -43.837708 25.732056 35.457214
v -45.019287 22.950806 30.273743
v -44.250793 25.843872 25.073730
v -42.300720 31.518066 25.057190
v -17.461426 25.653076 29.174194
v -18.353516 22.804810 34.379150
v -20.494080 17.199707 34.403412
v -21.742615 14.442871 29.222595
v -20.850525 17.291016 24.017639
v -18.710022 22.896118 23.993408
v 5.882935 16.623291 28.785889
v 4.774109 13.858398 33.994141
v 2.609985 8.262329 34.018738
v 1.554810 5.431152 28.835083
v 2.663696 8.195923 23.626770
v 4.827759 13.791992 23.602173
v 25.221497 9.440674 29.193542
v 24.100281 6.667114 34.401733
v 21.898743 1.092773 34.425659
v 20.816284 -1.706665 29.241272
v 21.934326 1.068726 24.033020
v 24.138000 6.641846 24.009216
v 40.072876 4.732666 29.473755
v 39.030029 1.927002 34.683167
v 36.776062 -3.626587 34.706238
v 35.565491 -6.374878 29.519897
v 36.609375 -3.569824 24.310425
v 38.862732 1.984131 24.287354
v 57.220642 -1.761719 31.159912
v 56.444031 -4.632690 36.413208
v 54.097107 -10.154053 36.455444
v 52.528076 -12.804443 31.242737
v 53.308838 -9.933472 25.988831
v 55.654419 -4.412109 25.948181
v 82.264435 -13.280884 29.355286
v 82.518585 -16.590942 34.353149
v 79.753967 -21.911499 34.571472
v 76.752930 -23.922119 29.797852
v 76.671997 -20.612061 24.857971
v 79.303955 -15.291382 24.595215
v 88.059082 -22.595581 16.910339
v 89.849426 -27.144287 20.389343
v 86.087952 -31.661133 21.593262
v 80.567596 -31.647461 19.311829
v 79.090637 -27.250366 15.776245
v 82.709381 -22.670654 14.596741
v 88.750275 -34.315552 -3.977417
v 90.636932 -39.150635 -0.966980
v 86.648163 -42.991821 1.342712
v 80.772675 -41.997925 0.641968
v 78.885986 -37.162842 -2.368469
v 82.874786 -33.321655 -4.678162
v 88.319031 -46.702515 -22.942322
v 90.206909 -51.502686 -19.877319
v 86.225220 -55.134277 -17.239502
v 80.355652 -53.965576 -17.666626
v 78.467773 -49.165283 -20.731628
v 82.449493 -45.533813 -23.369446
v 86.280060 -57.643921 -41.678467
v 88.010773 -63.094116 -39.861755
v 83.981018 -66.924438 -37.605713
v 78.220551 -65.304565 -37.166382
v 76.489838 -59.854370 -38.983093
v 80.519592 -56.024170 -41.239136
v -82.707092 66.924316 23.198486
v -73.798340 66.477417 23.417419
v -87.367065 66.829712 30.806946
v -83.118286 66.288452 38.634155
v -74.209473 65.841431 38.853119
v -69.549561 65.936035 31.244873
v -68.318604 33.555298 25.756897
v -66.639221 39.314819 25.651123
v -69.091248 30.749634 30.908264
v -68.259155 33.554077 36.053619
v -66.576355 39.316650 36.139923
v -65.728699 42.271484 30.888733
v -82.738220 66.032959 23.170471
v -73.837280 65.586792 23.379150
v -87.386841 65.938232 30.770752
v -83.150818 65.397583 38.592255
v -74.246765 64.950562 38.821289
v -69.582092 65.045044 31.208374
v -69.025818 32.681152 23.856689
v -65.963562 40.232910 23.751526
v -77.295532 39.339966 23.860596
v -70.514343 43.940430 23.971130
v -70.397827 29.035400 30.885803
v -80.771606 36.870605 30.894653
v -68.937500 32.610718 37.933411
v -77.407410 39.061768 38.108887
v -65.867798 40.163330 38.058899
v -70.629639 43.671509 38.233887
v -64.392334 43.975098 30.909851
v -67.139038 46.138306 31.193359
v -82.629089 52.440918 23.306702
v -74.618042 54.115601 23.517883
v -86.808655 51.386230 30.333313
v -82.893127 52.039795 37.529480
v -74.884583 53.725586 37.745941
v -70.695557 54.764282 30.715088
v -84.320618 66.158936 20.314087
v -72.135437 65.636108 20.588440
v -90.636902 65.982178 30.702576
v -84.854248 65.316528 41.379913
v -72.665283 64.793457 41.678436
v -66.333984 64.938354 31.273621
vt 0.696385 0.743431
vt 0.681836 0.754558
vt 0.643433 0.688642
vt 0.658898 0.679013
vt 0.732917 0.788308
vt 0.722329 0.804293
vt 0.667388 0.758409
vt 0.631147 0.696030
vt 0.603925 0.628158
vt 0.619279 0.618354
vt 0.705312 0.804992
vt 0.592310 0.636595
vt 0.566850 0.564238
vt 0.584283 0.558427
vt 0.554599 0.571454
vt 0.489803 0.596999
vt 0.504352 0.608127
vt 0.472104 0.663971
vt 0.456639 0.654343
vt 0.521193 0.558427
vt 0.531780 0.574413
vt 0.518799 0.611978
vt 0.484390 0.671359
vt 0.433714 0.722706
vt 0.418360 0.712903
vt 0.548798 0.575111
vt 0.445329 0.731143
vt 0.399525 0.781083
vt 0.382093 0.775272
vt 0.411776 0.788299
vt 0.319413 0.591386
vt 0.342301 0.583488
vt 0.341211 0.629916
vt 0.318264 0.633290
vt 0.318437 0.570088
vt 0.341064 0.558427
vt 0.364969 0.590497
vt 0.363756 0.632007
vt 0.342837 0.676601
vt 0.308895 0.677167
vt 0.363421 0.569863
vt 0.376292 0.674472
vt 0.246869 0.605742
vt 0.269780 0.613632
vt 0.270894 0.641222
vt 0.247933 0.637900
vt 0.247983 0.594521
vt 0.271006 0.606713
vt 0.292471 0.606602
vt 0.293442 0.639147
vt 0.269617 0.673764
vt 0.235621 0.673300
vt 0.254034 0.591813
vt 0.270917 0.601264
vt 0.293703 0.594744
vt 0.303095 0.675996
vt 0.287553 0.591807
vt 0.254114 0.573382
vt 0.248026 0.570364
vt 0.287019 0.573385
vt 0.293010 0.570589
vt 0.270463 0.564412
vt 0.270383 0.558928
vt 0.074827 0.664974
vt 0.075130 0.689836
vt 0.072279 0.689922
vt 0.071976 0.665087
vt 0.073096 0.640450
vt 0.070247 0.640580
vt 0.062343 0.665092
vt 0.062040 0.689955
vt 0.059191 0.689857
vt 0.059493 0.664980
vt 0.064074 0.640568
vt 0.061225 0.640450
vt 0.295425 0.549491
vt 0.278707 0.551473
vt 0.283581 0.474397
vt 0.300291 0.472547
vt 0.295352 0.551132
vt 0.278469 0.553230
vt 0.289716 0.399297
vt 0.306457 0.397052
vt 0.311917 0.552879
vt 0.316722 0.476928
vt 0.311988 0.554653
vt 0.293641 0.325417
vt 0.310418 0.322480
vt 0.322871 0.401647
vt 0.294667 0.259233
vt 0.311449 0.256028
vt 0.326864 0.326457
vt 0.295841 0.192505
vt 0.312618 0.189525
vt 0.327900 0.259732
vt 0.300059 0.125432
vt 0.316776 0.123313
vt 0.329062 0.193623
vt 0.314697 0.057959
vt 0.330683 0.058772
vt 0.333131 0.128697
vt 0.345970 0.068427
vt 0.375560 0.011345
vt 0.382837 0.029103
vt 0.439977 0.001992
vt 0.442218 0.020785
vt 0.500636 0.003371
vt 0.502002 0.022145
vt 0.560563 0.009893
vt 0.559158 0.028318
vt 0.254450 0.553509
vt 0.237731 0.551527
vt 0.232978 0.476435
vt 0.249689 0.478286
vt 0.254522 0.555155
vt 0.237966 0.553285
vt 0.226876 0.401762
vt 0.243617 0.404007
vt 0.270941 0.550121
vt 0.266120 0.473905
vt 0.270872 0.551895
vt 0.222887 0.326648
vt 0.239664 0.329585
vt 0.260031 0.399413
vt 0.221850 0.259919
vt 0.238633 0.263125
vt 0.256110 0.325608
vt 0.220693 0.193976
vt 0.237470 0.196955
vt 0.255084 0.259420
vt 0.216654 0.129475
vt 0.233371 0.131594
vt 0.253913 0.192858
vt 0.204148 0.070546
vt 0.220134 0.069733
vt 0.249725 0.126211
vt 0.235421 0.060078
vt 0.181562 0.028684
vt 0.188839 0.010926
vt 0.124218 0.020785
vt 0.126460 0.001992
vt 0.065659 0.022119
vt 0.067025 0.003345
vt 0.003289 0.028948
vt 0.001883 0.010523
vt 0.051607 0.654943
vt 0.051269 0.683444
vt 0.026407 0.697453
vt 0.001883 0.682960
vt 0.002221 0.654459
vt 0.027083 0.640450
vt 0.089353 0.612307
vt 0.089723 0.583832
vt 0.098842 0.578717
vt 0.098299 0.617697
vt 0.065194 0.569318
vt 0.065364 0.558928
vt 0.064518 0.626280
vt 0.064357 0.636676
vt 0.040317 0.583341
vt 0.031368 0.577953
vt 0.040011 0.611829
vt 0.030903 0.616949
vt 0.776000 0.495507
vt 0.757577 0.500878
vt 0.733348 0.424662
vt 0.751496 0.418431
vt 0.776798 0.497264
vt 0.758366 0.502652
vt 0.706057 0.350170
vt 0.723985 0.343331
vt 0.677471 0.276366
vt 0.695370 0.269451
vt 0.651958 0.210177
vt 0.669859 0.203267
vt 0.625948 0.143615
vt 0.643783 0.136538
vt 0.598635 0.076968
vt 0.616295 0.069466
vt 0.567768 0.010835
vt 0.584786 0.001992
vt 0.757932 0.996250
vt 0.739509 0.990879
vt 0.763655 0.914927
vt 0.781804 0.921158
vt 0.757139 0.998008
vt 0.738717 0.992652
vt 0.791232 0.839646
vt 0.809160 0.846485
vt 0.820352 0.764456
vt 0.838251 0.771371
vt 0.846072 0.697731
vt 0.863972 0.704642
vt 0.871904 0.631622
vt 0.889740 0.638698
vt 0.898508 0.566696
vt 0.916168 0.574198
vt 0.926567 0.506427
vt 0.943585 0.515269
vt 0.086483 0.672847
vt 0.103916 0.667312
vt 0.116167 0.680201
vt 0.110986 0.698626
vt 0.093554 0.704161
vt 0.081303 0.691272
vt 0.229820 0.641853
vt 0.220044 0.666007
vt 0.193612 0.644709
vt 0.215300 0.629994
vt 0.176499 0.602805
vt 0.202130 0.597449
vt 0.170744 0.558928
vt 0.209724 0.560601
vt 0.155117 0.558928
vt 0.164943 0.583085
vt 0.149743 0.594306
vt 0.128064 0.579562
vt 0.136086 0.626464
vt 0.110462 0.621072
vt 0.143638 0.661865
vt 0.104642 0.663538
vt 0.134740 0.695813
vt 0.136169 0.667312
vt 0.139018 0.667441
vt 0.137591 0.695916
vt 0.126533 0.667312
vt 0.127963 0.695813
vt 0.125114 0.695922
vt 0.123684 0.667435
vn 0.175914 0.472939 0.863356
vn 0.191483 0.470657 0.861288
vn 0.308738 0.951135 0.004788
vn 0.322976 0.946407 0.001011
vn 0.023032 -0.005020 0.999722
vn 0.032946 -0.008431 0.999422
vn -0.252951 -0.827486 0.501282
vn -0.307378 -0.951523 0.011109
vn -0.263227 -0.823815 0.502035
vn -0.322838 -0.946436 0.005903
vn -0.174818 -0.469101 -0.865669
vn -0.187996 -0.459627 -0.867986
vn -0.022985 0.004597 -0.999725
vn -0.033000 0.008428 -0.999420
vn 0.252740 0.827454 -0.501440
vn 0.263143 0.823849 -0.502024
vn 0.202761 0.468424 0.859922
vn 0.351829 0.936032 -0.007762
vn -0.151027 -0.472932 0.868059
vn -0.352064 -0.935974 -0.002073
vn -0.198839 -0.457459 -0.866715
vn 0.151481 0.474022 -0.867385
vn 0.307933 0.811631 0.496419
vn 0.178842 0.472031 0.863251
vn -0.178136 -0.468312 0.865420
vn -0.306708 -0.807682 0.503568
vn -0.307683 -0.811656 -0.496534
vn -0.177928 -0.470081 -0.864503
vn 0.175078 0.460560 -0.870191
vn 0.306695 0.807807 -0.503375
vn 0.276159 0.822486 0.497246
vn 0.148635 0.476677 0.866422
vn -0.179671 -0.467271 0.865665
vn -0.293605 -0.814002 0.501195
vn -0.151060 -0.485656 -0.860999
vn -0.275552 -0.822504 -0.497553
vn 0.178035 0.461165 -0.869270
vn 0.292752 0.814567 -0.500776
vn 0.259210 0.827781 0.497583
vn 0.122051 0.503059 0.855590
vn -0.052717 0.025543 0.998283
vn -0.311620 -0.807507 0.500825
vn -0.316009 -0.805481 0.501337
vn -0.115376 -0.481354 -0.868900
vn -0.259476 -0.828013 -0.497058
vn 0.053946 -0.026575 -0.998190
vn 0.311503 0.807553 -0.500824
vn 0.315829 0.805553 -0.501335
vn 0.339593 0.803062 0.489662
vn 0.202440 0.462975 0.862944
vn 0.005286 0.005004 0.999974
vn -0.340938 -0.792809 0.505189
vn -0.338821 -0.792043 0.507807
vn -0.186996 -0.473458 -0.860738
vn -0.337597 -0.802738 -0.491569
vn 0.006472 -0.013351 -0.999890
vn 0.342020 0.792344 -0.505186
vn 0.339991 0.791545 -0.507801
vn 0.635258 0.658795 0.403035
vn 0.532386 0.296382 0.792920
vn 0.363450 -0.153396 0.918898
vn -0.302837 -0.796898 0.522727
vn -0.300192 -0.794773 0.527466
vn -0.561379 -0.322300 -0.762218
vn -0.598569 -0.678590 -0.425711
vn -0.266283 0.094595 -0.959242
vn 0.306783 0.795063 -0.523220
vn 0.302936 0.793343 -0.528049
vn 0.937077 0.348858 -0.013624
vn 0.958288 -0.073360 0.276230
vn 0.738767 -0.488914 0.463882
vn -0.206822 -0.846750 0.490141
vn -0.206821 -0.843693 0.495386
vn -0.974447 0.129564 -0.183482
vn -0.956640 -0.288374 0.040985
vn -0.762762 0.495771 -0.415218
vn 0.203109 0.847535 -0.490337
vn 0.203013 0.843785 -0.496803
vn 0.982659 -0.156030 0.100175
vn 0.673874 0.633958 -0.379463
vn 0.747039 -0.567744 0.345831
vn -0.201870 -0.838149 0.506710
vn -0.666494 -0.634285 0.391751
vn -0.976113 0.193219 -0.099345
vn -0.750349 0.571512 -0.332191
vn 0.202200 0.838095 -0.506667
vn 0.678166 0.603642 -0.419176
vn 0.975035 -0.212271 0.065174
vn 0.324155 -0.815018 0.480280
vn -0.646358 -0.629748 0.430858
vn -0.978985 0.195624 -0.057623
vn -0.300973 0.818968 -0.488577
vn 0.946524 0.222880 -0.233273
vn 0.946541 0.222822 -0.233260
vn 0.739096 -0.615025 0.274738
vn 0.321495 -0.834427 0.447630
vn -0.198138 -0.838525 0.507560
vn -0.946530 -0.222898 0.233233
vn -0.946547 -0.222838 0.233220
vn -0.299063 0.837377 -0.457560
vn -0.739024 0.613179 -0.279023
vn 0.196499 0.837240 -0.510310
vn 0.049016 0.997897 0.042413
vn 0.049010 0.997897 0.042422
vn 0.049014 0.997897 0.042417
vn 0.049009 0.997897 0.042413
vn 0.049012 0.997898 0.042408
vn 0.049029 0.997895 0.042438
vn -0.171184 -0.360054 -0.917092
vn -0.171188 -0.360058 -0.917090
vn -0.171192 -0.360058 -0.917089
vn -0.171192 -0.360059 -0.917088
vn -0.171195 -0.360059 -0.917088
vn -0.171200 -0.360058 -0.917087
vn -0.044756 0.004237 -0.998989
vn -0.005891 0.009385 -0.999939
vn -0.005958 0.009376 -0.999938
vn 0.008630 0.011304 -0.999899
vn -0.555111 -0.689131 -0.465779
vn -0.539454 -0.690055 -0.482508
vn -0.531983 -0.690364 -0.490298
vn -0.522066 -0.690648 -0.500451
vn -0.529124 -0.707459 0.468539
vn -0.532369 -0.707273 0.465133
vn -0.531327 -0.707334 0.466229
vn -0.533737 -0.707189 0.463690
vn 0.018853 -0.024269 0.999528
vn 0.005344 -0.026339 0.999639
vn 0.005365 -0.026335 0.999639
vn 0.000030 -0.027151 0.999631
vn 0.574399 0.667178 0.474278
vn 0.549640 0.677907 0.488200
vn 0.534072 0.684230 0.496585
vn 0.525094 0.687734 0.501297
vn 0.540076 0.691343 -0.479961
vn 0.536335 0.696501 -0.476687
vn 0.529713 0.705455 -0.470889
vn 0.519001 0.719478 -0.461508
vn 0.035212 -0.027901 -0.998990
vn 0.033975 -0.029663 -0.998982
vn 0.034577 -0.028806 -0.998987
vn 0.032866 -0.031244 -0.998971
vn -0.786726 -0.346944 -0.510580
vn -0.785278 -0.343286 -0.515261
vn -0.786098 -0.345350 -0.512623
vn -0.784465 -0.341259 -0.517838
vn -0.816091 -0.323577 0.478845
vn -0.818145 -0.322613 0.475983
vn -0.817115 -0.323098 0.477421
vn -0.818944 -0.322236 0.474864
vn -0.037866 0.028589 0.998874
vn -0.036865 0.030055 0.998868
vn -0.035931 0.031424 0.998860
vn -0.034158 0.034020 0.998837
vn 0.781745 0.355698 0.512205
vn 0.781417 0.353794 0.514021
vn 0.781300 0.353126 0.514657
vn 0.780858 0.350618 0.517039
vn 0.820815 0.311893 -0.478524
vn 0.821703 0.311228 -0.477432
vn 0.821941 0.311049 -0.477139
vn 0.822610 0.310546 -0.476313
vn 0.068505 -0.204568 -0.976452
vn 0.030207 -0.234165 -0.971727
vn 0.039905 -0.226728 -0.973140
vn 0.011136 -0.248676 -0.968523
vn -0.827657 -0.203851 -0.522904
vn -0.831572 -0.211194 -0.513697
vn -0.830378 -0.208933 -0.516545
vn -0.833043 -0.214007 -0.510138
vn -0.844977 -0.233790 0.480996
vn -0.850911 -0.245104 0.464623
vn -0.853423 -0.250081 0.457307
vn -0.856529 -0.256415 0.447895
vn 0.031712 -0.274073 0.961186
vn -0.002987 -0.301497 0.953463
vn -0.013974 -0.310055 0.950616
vn -0.037192 -0.327940 0.943966
vn 0.832531 -0.326064 0.447856
vn 0.812227 -0.350344 0.466420
vn 0.809398 -0.353589 0.468881
vn 0.796643 -0.367848 0.479633
vn 0.850084 -0.294252 -0.436776
vn 0.831751 -0.315388 -0.456860
vn 0.834203 -0.312646 -0.454266
vn 0.821545 -0.326534 -0.467376
vn -0.077434 0.019899 -0.996799
vn 0.060295 -0.035900 -0.997535
vn -0.463040 -0.743147 -0.483039
vn -0.397128 -0.779642 -0.484197
vn -0.455824 -0.743965 0.488611
vn -0.385621 -0.782503 0.488862
vn -0.057360 0.017462 0.998201
vn 0.080732 -0.038494 0.995992
vn 0.403158 0.772266 0.490988
vn 0.468303 0.735576 0.489510
vn 0.390748 0.775254 -0.496284
vn 0.460743 0.736208 -0.495695
vn 0.026085 0.030494 -0.999195
vn 0.025548 0.041085 -0.998829
vn 0.026049 0.031205 -0.999174
vn 0.025512 0.041801 -0.998800
vn -0.852302 0.040084 -0.521512
vn -0.852423 0.045738 -0.520848
vn -0.852311 0.040464 -0.521468
vn -0.852430 0.046123 -0.520803
vn -0.878860 0.000123 0.477080
vn -0.878871 0.000723 0.477059
vn -0.878996 0.009062 0.476743
vn -0.879003 0.009668 0.476719
vn -0.026852 -0.045987 0.998581
vn -0.026888 -0.045266 0.998613
vn -0.027395 -0.035270 0.999002
vn -0.027432 -0.034545 0.999027
vn 0.851877 -0.052462 0.521108
vn 0.851720 -0.054159 0.521191
vn 0.851866 -0.052577 0.521114
vn 0.851709 -0.054274 0.521197
vn 0.878216 -0.017850 -0.477931
vn 0.878188 -0.012813 -0.478144
vn 0.878215 -0.017509 -0.477945
vn 0.878186 -0.012474 -0.478158
vn 0.897993 -0.411609 -0.155524
vn 0.905119 -0.412793 -0.101790
vn 0.894592 -0.436303 0.096666
vn 0.894066 -0.434749 0.107889
vn 0.795337 -0.606159 -0.003310
vn 0.819416 -0.573139 -0.008354
vn 0.895858 -0.434292 0.093964
vn 0.895312 -0.432654 0.105960
vn 0.896086 -0.414469 -0.158891
vn 0.902620 -0.417594 -0.104365
vn 0.786826 -0.617167 -0.003209
vn 0.812317 -0.583153 -0.008653
vn 0.044033 0.998003 0.045285
vn 0.043749 0.998195 0.041137
vn 0.036173 0.999016 0.025668
vn 0.033624 0.999152 0.023786
vn 0.013421 0.999057 0.041291
vn 0.014952 0.999108 0.039480
vn 0.036438 0.997946 0.052680
vn 0.036725 0.998160 0.048256
vn 0.040008 0.998606 0.034423
vn 0.038967 0.998701 0.032841
vn 0.032207 0.998622 0.041443
vn 0.033289 0.998628 0.040414
s 1
g SM_HOTEL_tuyau_2eme_etage_msh
usemtl initialShadingGroup
f 2/77/1 8/78/2 1/76/3
f 1/76/3 8/78/2 7/79/4
f 2/164/1 3/165/5 8/167/2
f 8/167/2 3/165/5 9/166/6
f 3/119/7 4/111/8 9/120/9
f 9/120/9 4/111/8 10/114/10
f 4/111/8 5/112/11 10/114/10
f 10/114/10 5/112/11 11/113/12
f 5/182/11 6/183/13 11/185/12
f 11/185/12 6/183/13 12/184/14
f 1/76/3 7/79/4 6/84/15
f 6/84/15 7/79/4 12/85/16
f 8/78/2 14/82/17 7/79/4
f 7/79/4 14/82/17 13/83/18
f 8/167/2 9/166/6 14/171/17
f 14/171/17 9/166/6 15/170/19
f 9/120/9 10/114/10 15/124/19
f 15/124/19 10/114/10 16/118/20
f 10/114/10 11/113/12 16/118/20
f 16/118/20 11/113/12 17/117/21
f 12/184/14 18/188/22 11/185/12
f 11/185/12 18/188/22 17/189/21
f 7/79/4 13/83/18 12/85/16
f 12/85/16 13/83/18 18/89/22
f 13/83/18 14/82/17 19/88/23
f 19/88/23 14/82/17 20/87/24
f 14/171/17 15/170/19 20/173/24
f 20/173/24 15/170/19 21/172/25
f 15/124/19 16/118/20 21/127/25
f 21/127/25 16/118/20 22/123/26
f 16/118/20 17/117/21 22/123/27
f 22/123/27 17/117/21 23/122/28
f 18/188/22 24/190/29 17/189/21
f 17/189/21 24/190/29 23/191/28
f 13/83/18 19/88/30 18/89/22
f 18/89/22 19/88/30 24/92/29
f 19/88/23 20/87/24 25/91/31
f 25/91/31 20/87/24 26/90/32
f 20/173/24 21/172/25 26/175/32
f 26/175/32 21/172/25 27/174/33
f 22/123/26 28/126/34 21/127/25
f 21/127/25 28/126/34 27/130/33
f 23/122/28 29/125/35 22/123/27
f 22/123/27 29/125/35 28/126/36
f 23/191/28 24/190/29 29/193/35
f 29/193/35 24/190/29 30/192/37
f 24/92/29 19/88/30 30/95/37
f 30/95/37 19/88/30 25/91/38
f 25/91/31 26/90/32 31/94/39
f 31/94/39 26/90/32 32/93/40
f 26/175/32 27/174/33 32/177/40
f 32/177/40 27/174/33 33/176/41
f 28/126/34 34/129/42 27/130/33
f 27/130/33 34/129/42 33/133/43
f 29/125/35 35/128/44 28/126/36
f 28/126/36 35/128/44 34/129/45
f 29/193/35 30/192/37 35/195/44
f 35/195/44 30/192/37 36/194/46
f 30/95/37 25/91/38 36/98/47
f 36/98/47 25/91/38 31/94/48
f 31/94/39 32/93/40 37/97/49
f 37/97/49 32/93/40 38/96/50
f 33/176/41 39/178/51 32/177/40
f 32/177/40 39/178/51 38/179/50
f 34/129/42 40/132/52 33/133/43
f 33/133/43 40/132/52 39/136/53
f 35/128/44 41/131/54 34/129/45
f 34/129/45 41/131/54 40/132/55
f 35/195/44 36/194/46 41/197/54
f 41/197/54 36/194/46 42/196/56
f 36/98/47 31/94/48 42/101/57
f 42/101/57 31/94/48 37/97/58
f 37/97/49 38/96/50 43/100/59
f 43/100/59 38/96/50 44/99/60
f 39/178/51 45/180/61 38/179/50
f 38/179/50 45/180/61 44/181/60
f 40/132/52 46/135/62 39/136/53
f 39/136/53 46/135/62 45/137/63
f 41/131/54 47/134/64 40/132/55
f 40/132/55 47/134/64 46/135/65
f 41/197/54 42/196/56 47/199/64
f 47/199/64 42/196/56 48/198/66
f 42/101/57 37/97/58 48/102/67
f 48/102/67 37/97/58 43/100/68
f 43/5/59 44/6/60 49/1/69
f 49/1/69 44/6/60 50/2/70
f 45/11/61 51/7/71 44/6/60
f 44/6/60 51/7/71 50/2/70
f 46/135/62 52/138/72 45/137/63
f 45/137/63 52/138/72 51/139/73
f 47/21/64 53/17/74 46/20/65
f 46/20/65 53/17/74 52/16/75
f 47/21/64 48/26/66 53/17/74
f 53/17/74 48/26/66 54/22/76
f 48/102/67 43/100/68 54/104/77
f 54/104/77 43/100/68 49/103/78
f 50/2/70 56/3/79 49/1/69
f 49/1/69 56/3/79 55/4/80
f 50/2/70 51/7/71 56/3/79
f 56/3/79 51/7/71 57/8/81
f 51/139/73 52/138/72 57/141/82
f 57/141/82 52/138/72 58/140/83
f 52/16/75 53/17/74 58/19/83
f 58/19/83 53/17/74 59/18/84
f 54/22/76 60/23/85 53/17/74
f 53/17/74 60/23/85 59/18/84
f 49/103/78 55/105/80 54/104/77
f 54/104/77 55/105/80 60/106/86
f 55/4/80 56/3/79 61/10/87
f 61/10/87 56/3/79 62/9/88
f 56/3/79 57/8/81 62/9/88
f 62/9/88 57/8/81 63/12/89
f 58/140/83 64/142/90 57/141/82
f 57/141/82 64/142/90 63/143/89
f 59/18/84 65/24/91 58/19/83
f 58/19/83 65/24/91 64/25/90
f 60/23/85 66/27/92 59/18/84
f 59/18/84 66/27/92 65/24/91
f 60/106/86 55/105/80 66/108/92
f 66/108/92 55/105/80 61/107/87
f 61/10/87 62/9/88 67/14/93
f 67/14/93 62/9/88 68/13/94
f 62/9/88 63/12/89 68/13/95
f 68/13/95 63/12/89 69/15/96
f 64/142/90 70/144/97 63/143/89
f 63/143/89 70/144/97 69/145/96
f 65/24/91 71/28/98 64/25/90
f 64/25/90 71/28/98 70/29/99
f 66/27/92 72/30/100 65/24/91
f 65/24/91 72/30/100 71/28/101
f 66/108/92 61/107/87 72/110/100
f 72/110/100 61/107/87 67/109/102
s 3
f 74/146/103 73/147/104 78/151/105
f 73/147/104 75/148/106 78/151/105
f 75/148/106 76/149/107 78/151/105
f 76/149/107 77/150/108 78/151/105
s 4
f 67/200/109 68/201/110 72/205/111
f 68/201/110 69/202/112 72/205/111
f 69/202/112 70/203/113 72/205/111
f 70/203/113 71/204/114 72/205/111
s 5
f 92/206/115 91/207/116 94/209/117
f 94/209/117 91/207/116 93/208/118
s 6
f 91/35/119 95/36/120 93/31/121
f 93/31/121 95/36/120 96/32/122
s 7
f 97/41/123 98/37/124 95/36/125
f 95/36/125 98/37/124 96/32/126
s 8
f 99/215/127 100/216/128 97/214/129
f 97/214/129 100/216/128 98/217/130
s 9
f 101/48/131 102/44/132 99/47/133
f 99/47/133 102/44/132 100/43/134
s 10
f 92/55/135 94/49/136 101/48/137
f 101/48/137 94/49/136 102/44/138
s 11
f 93/208/139 103/210/140 94/209/141
f 94/209/141 103/210/140 104/211/142
s 12
f 96/32/143 105/33/144 93/31/145
f 93/31/145 105/33/144 103/34/146
s 13
f 98/37/147 106/38/148 96/32/149
f 96/32/149 106/38/148 105/33/150
s 14
f 98/217/151 100/216/152 106/219/153
f 106/219/153 100/216/152 107/218/154
s 15
f 100/43/155 102/44/156 107/46/157
f 107/46/157 102/44/156 108/45/158
s 16
f 102/44/159 94/49/160 108/45/161
f 108/45/161 94/49/160 104/50/162
s 17
f 103/210/163 109/212/164 104/211/165
f 104/211/165 109/212/164 110/213/166
s 18
f 105/33/167 111/39/168 103/34/169
f 103/34/169 111/39/168 109/40/170
s 19
f 105/33/171 106/38/172 111/39/173
f 111/39/173 106/38/172 112/42/174
s 20
f 106/219/175 107/218/176 112/221/177
f 112/221/177 107/218/176 113/220/178
s 21
f 107/46/179 108/45/180 113/52/181
f 113/52/181 108/45/180 114/51/182
s 22
f 104/50/183 110/56/184 108/45/185
f 108/45/185 110/56/184 114/51/186
s 1
f 5/182/11 79/186/187 6/183/13
f 6/183/13 79/186/187 80/187/188
f 4/111/8 81/115/189 5/112/11
f 5/112/11 81/115/189 79/116/190
f 4/111/8 3/119/7 81/115/191
f 81/115/191 3/119/7 82/121/192
f 3/165/5 2/164/1 82/169/193
f 82/169/193 2/164/1 83/168/194
f 2/77/1 1/76/3 83/81/195
f 83/81/195 1/76/3 84/80/196
f 6/84/15 80/86/197 1/76/3
f 1/76/3 80/86/197 84/80/198
s 23
f 73/222/199 74/223/200 85/225/201
f 85/225/201 74/223/200 86/224/202
s 24
f 75/64/203 73/65/204 87/67/205
f 87/67/205 73/65/204 85/66/206
s 25
f 75/64/207 87/67/208 76/68/209
f 76/68/209 87/67/208 88/69/210
s 26
f 76/227/211 88/228/212 77/226/213
f 77/226/213 88/228/212 89/229/214
s 27
f 78/70/215 77/71/216 90/73/217
f 90/73/217 77/71/216 89/72/218
s 28
f 74/74/219 78/70/220 86/75/221
f 86/75/221 78/70/220 90/73/222
s 29
f 79/60/223 91/61/224 80/57/225
f 80/57/225 91/61/224 92/55/226
f 81/62/227 95/63/228 79/60/223
f 79/60/223 95/63/228 91/61/224
f 81/62/227 82/58/229 95/63/228
f 95/63/228 82/58/229 97/59/230
f 83/53/231 99/47/232 82/58/229
f 82/58/229 99/47/232 97/59/230
f 84/54/233 101/48/234 83/53/231
f 83/53/231 101/48/234 99/47/232
f 84/54/233 80/57/225 101/48/234
f 101/48/234 80/57/225 92/55/226
s 33
f 86/153/235 110/154/236 85/152/237
f 85/152/237 110/154/236 109/155/238
f 85/152/237 109/155/238 87/158/239
f 87/158/239 109/155/238 111/159/240
f 87/158/239 111/159/240 88/162/241
f 88/162/241 111/159/240 112/163/242
f 88/162/241 112/163/242 89/160/243
f 89/160/243 112/163/242 113/161/244
f 89/160/243 113/161/244 90/156/245
f 90/156/245 113/161/244 114/157/246
f 90/156/245 114/157/246 86/153/235
f 86/153/235 114/157/246 110/154/236
